<?xml version="1.0" standalone="no"?>
<!DOCTYPE svg PUBLIC "-//W3C//DTD SVG 20010904//EN"
 "http://www.w3.org/TR/2001/REC-SVG-20010904/DTD/svg10.dtd">
<svg version="1.0" xmlns="http://www.w3.org/2000/svg"
 width="588.000000pt" height="588.000000pt" viewBox="0 0 588.000000 588.000000"
 preserveAspectRatio="xMidYMid meet">
<metadata>
Created by potrace 1.11, written by Peter Selinger 2001-2013
</metadata>
<g transform="translate(0.000000,588.000000) scale(0.100000,-0.100000)"
fill="#000000" stroke="none">
<path d="M4228 4645 c-1 -2 -22 -6 -45 -10 -51 -7 -186 -41 -228 -57 -64 -24
-173 -82 -230 -122 -33 -24 -71 -49 -85 -56 -20 -11 -165 -14 -715 -18 l-690
-3 -95 61 c-52 34 -120 73 -150 87 -30 14 -62 29 -71 33 -27 14 -221 59 -289
67 -260 33 -541 -46 -765 -213 -199 -148 -317 -333 -385 -604 -11 -47 -27
-105 -35 -130 -8 -25 -16 -56 -19 -70 -6 -31 -30 -121 -141 -540 -48 -179 -88
-332 -90 -341 -2 -9 -18 -69 -35 -134 -17 -65 -33 -125 -35 -134 -2 -9 -15
-59 -30 -111 -57 -213 -92 -368 -94 -421 -2 -62 28 -222 54 -284 58 -138 201
-284 345 -354 114 -55 326 -84 433 -59 23 5 53 12 66 14 110 21 251 105 342
202 35 38 132 154 214 258 180 226 209 255 303 301 62 31 83 36 145 36 64 1
133 -5 207 -18 31 -6 131 -16 300 -30 246 -21 764 -21 990 0 19 2 73 6 119 10
46 4 91 8 100 10 9 1 47 6 85 10 38 3 102 12 142 19 208 36 335 -16 481 -197
31 -40 60 -74 63 -77 3 -3 21 -25 40 -50 19 -25 37 -47 40 -50 3 -3 47 -55 98
-117 139 -167 245 -240 417 -284 119 -30 248 -30 365 0 105 28 169 59 256 125
179 134 278 341 270 561 -3 79 -21 162 -70 330 -2 6 -6 24 -11 40 -7 30 -57
211 -75 275 -6 19 -33 118 -61 220 -28 102 -62 226 -75 275 -14 50 -38 137
-53 195 -16 58 -43 157 -61 220 -17 63 -33 122 -35 130 -29 122 -104 359 -132
418 -132 278 -405 492 -718 561 -27 7 -61 14 -75 17 -27 7 -276 15 -282 9z"/>
</g>
</svg>
