<?xml version="1.0" encoding="UTF-8" standalone="no"?>
<!-- Created with Inkscape (http://www.inkscape.org/) -->

<svg
   xmlns:dc="http://purl.org/dc/elements/1.1/"
   xmlns:cc="http://creativecommons.org/ns#"
   xmlns:rdf="http://www.w3.org/1999/02/22-rdf-syntax-ns#"
   xmlns:svg="http://www.w3.org/2000/svg"
   xmlns="http://www.w3.org/2000/svg"
   xmlns:sodipodi="http://sodipodi.sourceforge.net/DTD/sodipodi-0.dtd"
   xmlns:inkscape="http://www.inkscape.org/namespaces/inkscape"
   id="svg2"
   version="1.1"
   inkscape:version="0.91 r13725"
   xml:space="preserve"
   width="3514.1018"
   height="978.02032"
   viewBox="0 0 3514.1018 978.02032"
   sodipodi:docname="gobo-white.svg"><metadata
     id="metadata8"><rdf:RDF><cc:Work
         rdf:about=""><dc:format>image/svg+xml</dc:format><dc:type
           rdf:resource="http://purl.org/dc/dcmitype/StillImage" /><dc:title></dc:title></cc:Work></rdf:RDF></metadata><defs
     id="defs6" /><sodipodi:namedview
     pagecolor="#000000"
     bordercolor="#666666"
     borderopacity="1"
     objecttolerance="10"
     gridtolerance="10"
     guidetolerance="10"
     inkscape:pageopacity="1"
     inkscape:pageshadow="2"
     inkscape:window-width="1920"
     inkscape:window-height="1012"
     id="namedview4"
     showgrid="false"
     inkscape:zoom="0.25661116"
     inkscape:cx="1769.8364"
     inkscape:cy="477.99051"
     inkscape:window-x="0"
     inkscape:window-y="32"
     inkscape:window-maximized="1"
     inkscape:current-layer="g10"
     fit-margin-top="0"
     fit-margin-left="0"
     fit-margin-right="0"
     fit-margin-bottom="0" /><g
     id="g10"
     inkscape:groupmode="layer"
     inkscape:label="ink_ext_XXXXXX"
     transform="matrix(1.25,0,0,-1.25,1326.1916,978.02001)"
     style="display:inline"><g
       id="g12"
       transform="scale(0.119359,0.119359)"
       style="fill:#ffffff"><path
         d="m 689.293,3659.3 -116.445,-93.69 c -30.864,31.92 -58.828,55.71 -83.907,71.38 -25.062,15.67 -61.257,23.46 -108.554,23.35 -51.723,-0.09 -93.672,-11.84 -125.817,-35.27 -32.125,-23.46 -48.148,-53.59 -48.086,-90.41 0.075,-31.9 14.168,-60.05 42.34,-84.44 28.121,-24.4 76.11,-51.09 143.848,-80.06 67.758,-28.94 120.519,-55.91 158.281,-80.91 37.766,-24.99 68.762,-52.61 93.047,-82.87 24.285,-30.26 42.359,-62.18 54.266,-95.73 11.91,-33.62 17.898,-69.16 17.961,-106.58 0.183,-87.66 -31.497,-162.39 -95.075,-224.19 -63.582,-61.85 -140.57,-92.87 -231.015,-93.07 -88.227,-0.17 -166.176,23.82 -233.809,71.94 C 88.6992,2806.87 36.5742,2879.11 0,2975.58 l 143.836,40.8 c 52.605,-118.45 132.957,-177.59 241.055,-177.37 52.367,0.11 95.894,15.85 130.589,47.28 34.676,31.38 51.95,71 51.86,118.84 -0.059,28.58 -9.231,57.3 -27.485,86.14 -18.277,28.82 -40.941,52.53 -68.023,71.18 -27.098,18.65 -70.168,40 -129.195,64.07 -59.074,24.08 -104.524,46.16 -136.379,66.21 -31.856,20.04 -59.438,43.96 -82.742,71.73 -23.297,27.79 -40.3597,55.44 -51.1918,82.97 -10.8672,27.53 -16.3242,57.01 -16.3828,88.41 -0.1484,75.48 30.0547,139.86 90.6136,193.16 60.543,53.31 134.105,80.03 220.683,80.21 57.344,0.11 115.555,-12.16 174.59,-36.87 59.055,-24.7 108.203,-62.38 147.465,-113.04"
         style="fill:#ffffff;fill-opacity:1;fill-rule:nonzero;stroke:none"
         id="path14"
         inkscape:connector-curvature="0" /><path
         d="m 1336.22,3778.06 644.33,1.29 0.28,-143.93 -251.45,-0.51 1.82,-909.86 -142.27,-0.28 -1.8,909.86 -250.62,-0.5 -0.29,143.93"
         style="fill:#ffffff;fill-opacity:1;fill-rule:nonzero;stroke:none"
         id="path16"
         inkscape:connector-curvature="0" /><path
         d="m 2645.9,3779 143.93,0.27 1.28,-647.63 c 0.2,-95.92 23.35,-170.09 69.52,-222.35 46.14,-52.32 111.42,-78.36 195.76,-78.18 83.8,0.16 148.99,24.38 195.47,72.73 46.51,48.33 69.67,116.36 69.5,204.03 l -1.33,672.45 143.92,0.29 1.32,-662.5 c 0.25,-129.05 -36.36,-232.27 -109.82,-309.6 -73.47,-77.37 -171.4,-116.15 -293.82,-116.38 -125.18,-0.26 -225.46,38.71 -300.9,116.87 -75.42,78.13 -113.28,193.59 -113.59,346.33 L 2645.9,3779"
         style="fill:#ffffff;fill-opacity:1;fill-rule:nonzero;stroke:none"
         id="path18"
         inkscape:connector-curvature="0" /><path
         d="m 4328.09,3643.37 1.53,-770.89 8.27,0.02 c 106.97,0.22 187.47,5.21 241.5,14.95 54,9.75 105.25,30.93 153.72,63.57 48.46,32.64 86.96,75.87 115.55,129.68 28.53,53.82 42.77,113 42.64,177.51 -0.16,81.08 -23.2,154.34 -69.09,219.88 -45.91,65.53 -100.71,109.54 -164.44,132.03 -63.73,22.47 -149.36,33.61 -256.89,33.4 l -72.79,-0.15 z m -144.21,140.34 255.58,0.51 c 202.38,0.4 353.01,-52.82 451.95,-159.58 98.91,-106.8 148.5,-228.82 148.77,-366.13 0.29,-138.42 -50.48,-260.92 -152.28,-367.55 -101.81,-106.64 -250.04,-160.14 -444.68,-160.52 l -257.24,-0.51 -2.1,1053.78"
         style="fill:#ffffff;fill-opacity:1;fill-rule:nonzero;stroke:none"
         id="path20"
         inkscape:connector-curvature="0" /><path
         d="m 5711.11,3786.74 142.27,0.28 2.08,-1053.79 -142.27,-0.27 -2.08,1053.78"
         style="fill:#ffffff;fill-opacity:1;fill-rule:nonzero;stroke:none"
         id="path22"
         inkscape:connector-curvature="0" /><path
         d="m 7559.48,3263.09 c -0.23,116.27 -42.32,214.09 -126.31,293.49 -83.99,79.45 -187.15,119.06 -309.57,118.8 -116.36,-0.22 -215.94,-40.88 -298.78,-122.05 -82.83,-81.16 -124.12,-178.45 -123.9,-291.96 0.23,-115.1 43.03,-212.39 128.37,-291.86 85.37,-79.38 189.79,-119.01 313.31,-118.76 113.59,0.23 211.53,41.07 293.8,122.48 82.28,81.44 123.29,178.05 123.08,289.86 z m -1009.12,4.62 c -0.3,152.08 56.79,282.51 171.27,391.27 114.46,108.8 252.22,163.33 413.25,163.66 157.17,0.31 292.65,-54.12 406.44,-163.25 113.81,-109.15 170.89,-238.97 171.19,-389.37 0.31,-159.24 -55.55,-293.95 -167.53,-404.12 -112.01,-110.14 -249.61,-165.37 -412.84,-165.71 -161.01,-0.31 -298.16,54.79 -411.43,165.34 -113.23,110.55 -170.04,244.58 -170.35,402.18"
         style="fill:#ffffff;fill-opacity:1;fill-rule:nonzero;stroke:none"
         id="path24"
         inkscape:connector-curvature="0" /><path
         d="m 14555.4,2785.64 c -337.2,-557.21 -1149,-617.67 -1564,-113.6 -270.9,-332.99 -744.3,-447.36 -1136.6,-272.44 -346.3,154.37 -573.8,508.17 -569.3,887.13 l -0.6,-0.39 1.3,16.58 c 0.9,36.84 4.1,72.92 9,108.59 l 138,1634.08 c 253,-43.48 431.4,-267.59 423.7,-491.32 -7,-207.9 -12.4,-243.21 -21.5,-409.27 393.7,186.89 874.8,78.73 1151.9,-257.44 175.4,215.94 442.6,354.35 742.5,355.35 100.6,0.37 201.3,-15.06 297.3,-45.71 333.8,-107.27 563,-385.45 637.3,-701.77 -112.6,1713.33 -1540.7,3065.54 -3281.3,3059.7 -1731.56,-5.8 -3145.01,-1353.4 -3259.05,-3054.86 23.16,95.82 61.85,189.58 117.38,277.77 345.93,548.94 1153.82,597.01 1561.67,90.26 175.18,220.76 445.2,363.05 749.1,364.05 77.3,0.34 154.8,-8.76 230,-26.94 207.8,-50.51 380.5,-167.97 506.2,-321.61 l -41.7,-496.66 c -4.9,-35.51 -8.1,-71.59 -9,-108.42 l -1.4,-16.57 0.6,0.36 c -1.9,-176.63 46.8,-347.37 133.9,-495.33 -324.2,-521.52 -1084.4,-610.59 -1514.84,-152.46 -45.32,-356.66 -233.08,-695.83 -573.73,-841.17 -161.86,-69.17 -348.94,-102.52 -524.97,-89.58 l -75.32,385.76 253.44,3.95 c 257.71,29.63 398.71,210.04 450.24,292.1 -205.69,-75.63 -433.65,-79.13 -641.18,-8.39 -324.98,110.88 -546.62,383.75 -620.11,693.22 C 8241.21,1341.59 9667.46,-5.60547 11404.8,0.015625 13133.8,5.93359 14545.6,1349.33 14663.6,3047.03 c -22.1,-89.85 -57.7,-177.94 -108.2,-261.39"
         style="fill:#ffffff;fill-opacity:1;fill-rule:nonzero;stroke:none"
         id="path26"
         inkscape:connector-curvature="0" /><path
         d="m 9075.13,2736.22 c 245.56,9.14 458.03,193.54 501.84,435.47 27.48,111.13 46.5,224.55 76.74,334.92 58.32,212.27 135.81,343.35 135.81,343.35 l -281.25,-307.97 c -138.74,228.06 -434.99,319.26 -677.45,206.35 -226.88,-105.93 -351.04,-364.2 -291.81,-607.46 58.9,-242.49 287.12,-414.25 536.12,-404.66"
         style="fill:#ffffff;fill-opacity:1;fill-rule:nonzero;stroke:none"
         id="path28"
         inkscape:connector-curvature="0" /><path
         d="m 12021.4,3758.95 c -226.9,-105.78 -351.2,-364.04 -291.8,-607.48 58.8,-242.3 287.2,-414.08 536.3,-404.68 252.2,9.57 467.7,203.79 504,453.41 56.1,243.49 45.7,219.55 72.5,317.18 58.2,212.06 135.8,343.14 135.8,343.14 l -279.9,-306.4 c -138.9,227.48 -435.1,317.53 -676.9,204.83"
         style="fill:#ffffff;fill-opacity:1;fill-rule:nonzero;stroke:none"
         id="path30"
         inkscape:connector-curvature="0" /><path
         d="m 10557,2740.9 c 432.2,1.23 683.4,515.27 417.6,856.69 -262.4,336.94 -814.5,229.57 -930,-182 -39.8,-119.43 -54.42,-245.79 -86.59,-367.36 -33.35,-126.55 -77.25,-254.68 -142.6,-368.8 l 287.69,315.12 c 93.8,-152.57 261.8,-254.44 453.9,-253.65"
         style="fill:#ffffff;fill-opacity:1;fill-rule:nonzero;stroke:none"
         id="path32"
         inkscape:connector-curvature="0" /><path
         d="m 13208.8,3360.74 c -51.9,-224.59 -91.3,-454.13 -207.5,-657.23 l 277.8,304.26 c 93.2,-154.09 262.3,-257.12 455.7,-256.35 447.4,1.5 692.8,547.73 395.7,882.9 -292.9,330.51 -856.9,163.73 -921.7,-273.58"
         style="fill:#ffffff;fill-opacity:1;fill-rule:nonzero;stroke:none"
         id="path34"
         inkscape:connector-curvature="0" /></g><text
       xml:space="preserve"
       style="font-style:normal;font-weight:normal;font-size:31.15683556px;line-height:125%;font-family:sans-serif;letter-spacing:0px;word-spacing:0px;fill:#000000;fill-opacity:1;stroke:none;stroke-width:1px;stroke-linecap:butt;stroke-linejoin:miter;stroke-opacity:1"
       x="-1074.7137"
       y="-335.73926"
       id="text3663"
       sodipodi:linespacing="125%"
       transform="scale(1,-1)"><tspan
         sodipodi:role="line"
         id="tspan3665"
         x="-1074.7137"
         y="-335.73926"
         style="font-size:140.20576477px;fill:#ffffff">POWERED BY</tspan></text>
</g></svg>