<?xml version="1.0" encoding="UTF-8" standalone="no"?>
<!-- Created with Inkscape (http://www.inkscape.org/) -->

<svg
   xmlns:dc="http://purl.org/dc/elements/1.1/"
   xmlns:cc="http://creativecommons.org/ns#"
   xmlns:rdf="http://www.w3.org/1999/02/22-rdf-syntax-ns#"
   xmlns:svg="http://www.w3.org/2000/svg"
   xmlns="http://www.w3.org/2000/svg"
   xmlns:sodipodi="http://sodipodi.sourceforge.net/DTD/sodipodi-0.dtd"
   xmlns:inkscape="http://www.inkscape.org/namespaces/inkscape"
   width="94.253822mm"
   height="70.310173mm"
   viewBox="0 0 333.97024 249.13053"
   id="svg5126"
   version="1.1"
   inkscape:version="0.91 r13725"
   sodipodi:docname="logo-final-alternate.svg"
   inkscape:export-filename="/media/Windows/Alastair's laptop files/Local code/game-gig/img/logo-final-alternate.svg.png"
   inkscape:export-xdpi="180"
   inkscape:export-ydpi="180">
  <defs
     id="defs5128" />
  <sodipodi:namedview
     id="base"
     pagecolor="#ffffff"
     bordercolor="#666666"
     borderopacity="1.0"
     inkscape:pageopacity="0"
     inkscape:pageshadow="2"
     inkscape:zoom="1.4"
     inkscape:cx="-4.4430458"
     inkscape:cy="108.49832"
     inkscape:document-units="px"
     inkscape:current-layer="layer1"
     showgrid="false"
     fit-margin-top="0"
     fit-margin-left="0"
     fit-margin-right="0"
     fit-margin-bottom="0"
     inkscape:window-width="1920"
     inkscape:window-height="1012"
     inkscape:window-x="0"
     inkscape:window-y="32"
     inkscape:window-maximized="1" />
  <metadata
     id="metadata5131">
    <rdf:RDF>
      <cc:Work
         rdf:about="">
        <dc:format>image/svg+xml</dc:format>
        <dc:type
           rdf:resource="http://purl.org/dc/dcmitype/StillImage" />
        <dc:title></dc:title>
      </cc:Work>
    </rdf:RDF>
  </metadata>
  <g
     inkscape:label="Layer 1"
     inkscape:groupmode="layer"
     id="layer1"
     transform="translate(-93.014881,-302.08265)">
    <path
       inkscape:connector-curvature="0"
       style="opacity:0.95;fill:none;stroke:#ffffff;stroke-width:5.50481796;stroke-miterlimit:4;stroke-dasharray:none;stroke-opacity:1;filter:url(#filter5823)"
       d="m 130.23584,548.11861 c -1.45939,-0.1714 -2.46289,-0.3617 -5.31664,-1.008 -3.88086,-0.8788 -5.56578,-1.4198 -8.04949,-2.5843 -2.67192,-1.2527 -6.51884,-3.8291 -9.22753,-6.1797 -2.39373,-2.0773 -6.0101,-6.7274 -7.683774,-9.88011 -1.3892,-2.6168 -1.97449,-4.2457 -2.95475,-8.2229 -1.06257,-4.3112 -1.32169,-6.3054 -1.21722,-9.3678 0.0853,-2.4997 0.38792,-4.4113 1.24452,-7.8607 0.16367,-0.659 5.938394,-22.59465 12.832714,-48.7458 6.89433,-26.15116 13.00145,-49.34 13.57138,-51.53075 0.56992,-2.19074 1.2649,-4.64961 1.54437,-5.46413 1.70948,-4.98212 3.75708,-8.89075 6.95274,-13.27198 2.59085,-3.55204 4.24485,-5.4941 6.69883,-7.8655 2.4671,-2.38408 4.85799,-4.26084 8.71527,-6.84115 5.19879,-3.47774 10.63564,-5.82435 16.97569,-7.32696 6.63172,-1.57173 9.24186,-1.95556 13.92391,-2.04753 5.58356,-0.10968 9.12082,0.36153 16.82887,2.24184 4.92434,1.20125 9.75233,3.18544 14.01628,5.76038 1.37902,0.83276 3.54825,2.29212 5.53933,3.7266 1.95835,1.41091 4.04815,2.38259 5.64052,2.62262 0.40993,0.0618 2.28814,0.13288 4.17381,0.15797 5.42351,0.0722 72.88073,-0.34184 73.72858,-0.45251 0.81054,-0.10579 2.79926,-0.84364 3.7281,-1.38318 0.30016,-0.17436 0.87953,-0.58011 1.28748,-0.90167 1.06405,-0.83873 3.85265,-2.78564 5.52951,-3.86056 3.98618,-2.55524 8.38536,-4.56418 12.87619,-5.8801 2.4267,-0.71108 7.45455,-1.85005 9.92823,-2.24907 5.67698,-0.91572 11.51878,-0.86825 17.17194,0.13956 1.54193,0.27489 5.9115,1.24912 7.57278,1.68843 5.16125,1.36485 10.076,3.5176 14.40958,6.31171 7.81774,5.0405 12.21289,9.27952 17.42632,16.80724 3.00136,4.33368 5.36195,9.42932 6.73474,14.53786 0.24916,0.92715 6.49015,23.59979 13.86889,50.38364 14.22155,51.62234 14.31002,51.94684 14.8347,54.40174 0.61736,2.8884 0.69442,3.6154 0.69093,6.5186 -0.003,2.2464 -0.0362,2.8411 -0.2263,4.0222 -0.21365,1.3271 -0.78037,3.8378 -1.41626,6.2744 -1.12212,4.2998 -2.81426,7.5347 -6.27237,11.99131 -2.36885,3.0528 -4.31853,4.8478 -8.0913,7.4494 -4.25184,2.9321 -7.00183,4.1464 -12.10898,5.3472 -5.02472,1.1814 -6.34329,1.3712 -9.58983,1.3804 -3.20441,0.01 -4.45551,-0.1572 -8.99356,-1.1956 -2.87,-0.6568 -3.98842,-0.9754 -5.71414,-1.6282 -2.34965,-0.8887 -4.41042,-2.0002 -7.00454,-3.7778 -3.73721,-2.5608 -5.82057,-4.4496 -8.0986,-7.3421 -0.95496,-1.2125 -16.36833,-19.98351 -18.49275,-22.52121 -1.79803,-2.1478 -4.4846,-4.4289 -6.9,-5.8585 -1.45196,-0.8594 -3.72488,-1.9957 -5.0682,-2.5336 -2.95636,-1.184 -4.5049,-1.4402 -8.19856,-1.3566 -1.70498,0.039 -2.61355,0.1081 -3.82599,0.2932 -4.44155,0.6782 -5.53488,0.8395 -7.50292,1.107 -28.79712,3.9147 -62.32738,4.1787 -91.62505,0.7215 -2.80767,-0.3313 -8.16712,-1.0599 -9.88796,-1.3442 -0.51237,-0.085 -1.82817,-0.17 -3.08066,-0.2 -3.63466,-0.087 -5.20001,0.1733 -8.14886,1.3542 -2.39564,0.9594 -5.66809,2.7638 -7.30416,4.0275 -1.27164,0.9822 -3.35382,2.8207 -3.94924,3.4872 -0.54158,0.6061 -17.79406,22.04991 -19.37032,24.07611 -1.98557,2.5523 -3.77844,4.2728 -6.54306,6.279 -5.11657,3.7129 -8.18805,5.1287 -14.01207,6.4587 -3.21477,0.7342 -4.28726,0.938 -5.8626,1.1139 -1.57224,0.1755 -5.21726,0.176 -6.70852,0 z"
       id="path4218" />
    <path
       inkscape:connector-curvature="0"
       id="path5566"
       style="font-style:normal;font-variant:normal;font-weight:normal;font-stretch:normal;font-size:85.42876434px;line-height:125%;font-family:kremlin;-inkscape-font-specification:kremlin;letter-spacing:4.42000008px;word-spacing:0px;fill:#ffffff;fill-opacity:1;stroke:none;stroke-width:1px;stroke-linecap:butt;stroke-linejoin:miter;stroke-opacity:1;filter:url(#filter5823)"
       d="m 141.74128,468.01807 28.84212,0 0,-21.9456 -8.19998,0 0,13.74563 -12.44216,0 0,-19.31497 20.64214,0 0,-8.19998 -28.84212,0 0,35.71492 z" />
    <path
       inkscape:connector-curvature="0"
       id="path5568"
       style="font-style:normal;font-variant:normal;font-weight:normal;font-stretch:normal;font-size:85.42876434px;line-height:125%;font-family:kremlin;-inkscape-font-specification:kremlin;letter-spacing:4.42000008px;word-spacing:0px;fill:#ffffff;fill-opacity:1;stroke:none;stroke-width:1px;stroke-linecap:butt;stroke-linejoin:miter;stroke-opacity:1;filter:url(#filter5823)"
       d="m 177.90558,468.01807 8.19998,0 0,-6.87281 12.44214,0 0,6.87281 8.19998,0 0,-35.71492 -28.8421,0 0,35.71492 z m 20.64212,-27.51494 0,12.44216 -12.44214,0 0,-12.44216 12.44214,0 z" />
    <path
       inkscape:connector-curvature="0"
       id="path5570"
       style="font-style:normal;font-variant:normal;font-weight:normal;font-stretch:normal;font-size:85.42876434px;line-height:125%;font-family:kremlin;-inkscape-font-specification:kremlin;letter-spacing:4.42000008px;word-spacing:0px;fill:#ffffff;fill-opacity:1;stroke:none;stroke-width:1px;stroke-linecap:butt;stroke-linejoin:miter;stroke-opacity:1;filter:url(#filter5823)"
       d="m 214.09357,468.01807 8.19997,0 0,-19.00688 5.23756,5.23756 1.96704,0 5.23756,-5.23756 0,19.00688 8.19997,0 0,-35.71492 -5.23755,0 -9.10056,9.07685 -9.17164,-9.07685 -5.33235,0 0,35.71492 z" />
    <path
       inkscape:connector-curvature="0"
       id="path5572"
       style="font-style:normal;font-variant:normal;font-weight:normal;font-stretch:normal;font-size:85.42876434px;line-height:125%;font-family:kremlin;-inkscape-font-specification:kremlin;letter-spacing:4.42000008px;word-spacing:0px;fill:#ffffff;fill-opacity:1;stroke:none;stroke-width:1px;stroke-linecap:butt;stroke-linejoin:miter;stroke-opacity:1;filter:url(#filter5823)"
       d="m 250.32896,468.01807 28.8421,0 0,-8.19997 -20.35773,0 0.0474,-5.56935 13.43753,0 0,-8.17628 -13.76932,0 0,-5.56934 20.64213,0 0,-8.19998 -28.8421,0 0,35.71492 z" />
    <path
       inkscape:connector-curvature="0"
       id="path5574"
       style="font-style:normal;font-variant:normal;font-weight:normal;font-stretch:normal;font-size:85.42876434px;line-height:125%;font-family:kremlin;-inkscape-font-specification:kremlin;letter-spacing:4.42000008px;word-spacing:0px;fill:#ffffff;fill-opacity:1;stroke:none;stroke-width:1px;stroke-linecap:butt;stroke-linejoin:miter;stroke-opacity:1;filter:url(#filter5823)"
       d="m 298.38942,468.01807 28.8421,0 0,-21.9456 -8.19997,0 0,13.74563 -12.44216,0 0,-19.31497 20.64213,0 0,-8.19998 -28.8421,0 0,35.71492 z" />
    <path
       inkscape:connector-curvature="0"
       id="path5576"
       style="font-style:normal;font-variant:normal;font-weight:normal;font-stretch:normal;font-size:85.42876434px;line-height:125%;font-family:kremlin;-inkscape-font-specification:kremlin;letter-spacing:4.42000008px;word-spacing:0px;fill:#ffffff;fill-opacity:1;stroke:none;stroke-width:1px;stroke-linecap:butt;stroke-linejoin:miter;stroke-opacity:1;filter:url(#filter5823)"
       d="m 334.55371,468.06547 8.19997,0 0,-35.76232 -8.19997,0 0,35.76232 z" />
    <path
       inkscape:connector-curvature="0"
       id="path5578"
       style="font-style:normal;font-variant:normal;font-weight:normal;font-stretch:normal;font-size:85.42876434px;line-height:125%;font-family:kremlin;-inkscape-font-specification:kremlin;letter-spacing:4.42000008px;word-spacing:0px;fill:#ffffff;fill-opacity:1;stroke:none;stroke-width:1px;stroke-linecap:butt;stroke-linejoin:miter;stroke-opacity:1;filter:url(#filter5823)"
       d="m 350.62096,468.01807 28.84211,0 0,-21.9456 -8.19997,0 0,13.74563 -12.44216,0 0,-19.31497 20.64213,0 0,-8.19998 -28.84211,0 0,35.71492 z" />
    <g
       id="Page-1-0"
       style="fill:#ffffff;fill-opacity:1;fill-rule:evenodd;stroke:none;stroke-width:1;filter:url(#filter5823)"
       transform="matrix(0.40477639,0,0,0.40477639,169.95861,404.374)">
      <g
         transform="translate(-535,-152)"
         id="hac-logo-5"
         style="fill:#ffffff;fill-opacity:1">
        <g
           transform="translate(535,152)"
           id="hac-logo-dark-2"
           style="fill:#ffffff;fill-opacity:1">
          <path
             id="Fill-1-7"
             d="m 0.1486054,32.889434 1.8460298,-0.195152 c 1.5968157,-0.149413 2.1967754,-0.497026 2.1967754,-0.84464 l 0,-27.3974431 c 0,-0.3964016 -0.2984415,-0.5458144 -2.5444444,-0.7440152 L 0.20090957,3.5618201 0.05015048,2.7690171 l 14.02059652,0 -0.147683,0.792803 -1.947561,0.1982007 C 10.378687,3.9063845 9.781804,4.2539981 9.781804,4.5985625 l 0,12.8098675 14.86977,0 0,-12.9562311 c 0,-0.3964016 -0.298442,-0.5458144 -2.544445,-0.7440152 l -1.49836,-0.1463636 -0.147683,-0.792803 14.023673,0 -0.150759,0.792803 -1.895257,0.1982007 c -1.547589,0.1463637 -2.147548,0.4939773 -2.147548,0.8385417 l 0,27.4004925 c 0,0.396401 0.301518,0.545814 2.547521,0.740966 l 1.446056,0.149413 0.15076,0.792803 -14.02675,0 0.150759,-0.792803 1.947561,-0.195152 c 1.596816,-0.149413 2.144472,-0.448238 2.144472,-0.84464 l 0,-13.40142 -14.86977,0 0,13.550833 c 0,0.396401 0.298442,0.545814 2.544444,0.740966 l 1.544512,0.149413 0.150759,0.792803 -14.02059598512,0 L 0.1486054,32.889434 Z"
             inkscape:connector-curvature="0"
             style="fill:#ffffff;fill-opacity:1" />
          <path
             id="Fill-3-9"
             d="m 48.349981,29.429153 0.301518,-7.519431 c -5.941139,1.384356 -7.337968,3.363314 -7.337968,5.738674 0,2.125322 1.547588,3.561515 3.245935,3.561515 1.39683,0 2.544445,-0.545814 3.790515,-1.780758 m 0.150759,0.939167 -0.101532,-0.04879 c -1.895257,2.076534 -3.941273,3.90608 -6.534945,3.90608 -2.944418,0 -5.390407,-2.225947 -5.390407,-5.043447 0,-3.512728 2.944417,-5.936875 12.177643,-8.114034 l 0.04923,-1.283731 c 0.09845,-4.601307 -1.846029,-6.580265 -4.941206,-6.580265 -1.747575,0 -3.442845,0.84159 -3.442845,1.28678 0,0.347613 1.347601,1.384356 1.347601,2.768712 0,1.237992 -1.098387,2.37536 -2.695203,2.37536 -1.547588,0 -2.695204,-0.939167 -2.695204,-2.225947 0,-2.869337 6.187277,-5.83625 10.430069,-5.83625 5.239647,0 7.285664,1.978958 6.987222,8.357973 l -0.4492,9.053201 c -0.101532,1.680133 0.547655,2.472936 1.596815,2.472936 0.79687,0 1.495285,-0.643391 2.193699,-1.286781 l 0.449201,0.44519 c -1.147615,1.533769 -3.042873,3.659091 -5.239648,3.659091 -2.144471,0 -3.492073,-1.335569 -3.741287,-3.90608"
             inkscape:connector-curvature="0"
             style="fill:#ffffff;fill-opacity:1" />
          <path
             id="Fill-5-1"
             d="m 58.326849,23.592903 c 0,-6.778466 4.888902,-12.020113 11.676138,-12.020113 4.344323,0 7.63641,1.93017 7.63641,4.74767 0,1.683182 -1.347602,2.768712 -2.793659,2.768712 -1.747575,0 -2.993645,-1.530719 -2.796735,-3.262689 0,-1.08858 0.750719,-1.73197 0.750719,-2.027746 -0.150759,-0.594602 -1.498361,-1.286781 -2.796735,-1.286781 -3.593605,0 -6.387263,3.561516 -6.387263,9.101989 0,5.735625 3.144404,9.397765 7.534878,9.397765 2.596748,0 4.593537,-0.939166 6.288808,-3.610303 l 0.550732,0.295777 c -2.09832,4.253693 -5.141193,6.726628 -9.482439,6.726628 -5.839608,0 -10.180854,-4.650094 -10.180854,-10.830909"
             inkscape:connector-curvature="0"
             style="fill:#ffffff;fill-opacity:1" />
          <path
             id="Fill-7-9"
             d="m 79.082684,32.889434 0.898401,-0.04879 c 1.39683,-0.146364 1.944485,-0.246989 1.944485,-0.841591 l 0,-26.4094887 c 0,-1.4849811 -0.298441,-1.8813826 -1.596816,-2.225947 l -1.646043,-0.5946022 0.04923,-0.5427652 8.184065,-2.1771591 0,23.3450002 3.842818,-3.659091 c 2.547521,-2.326572 4.144337,-4.10733 4.144337,-5.144072 0,-0.841591 -0.750719,-1.335568 -2.645976,-1.484981 l -0.649187,-0.04879 -0.09846,-0.792803 10.580832,0 -0.15076,0.792803 -0.94763,0.09758 c -2.196778,0.298826 -3.544379,1.484981 -7.537957,5.293485 l -1.147615,1.088579 6.288808,10.138731 c 1.498364,2.37536 1.947564,2.966913 3.642834,3.116326 l 0.79995,0.09758 0.14768,0.792803 -8.233296,0 -0.999933,-1.780758 -5.19042,-9.001364 -1.84603,1.680133 0,7.516383 c 0,0.448238 0.301518,0.545814 2.29523,0.744015 l 0.849174,0.04879 0.101532,0.792803 -11.230015,0 0.150759,-0.792803 z"
             inkscape:connector-curvature="0"
             style="fill:#ffffff;fill-opacity:1" />
          <path
             id="Fill-9-6"
             d="m 117.90377,18.943114 c 0.0492,-3.363315 -1.04916,-6.430853 -3.79359,-6.430853 -2.54445,0 -4.79045,2.771762 -5.33811,6.47964 0,0 9.18092,-0.04879 9.1317,-0.04879 m -14.57133,4.598257 c 0,-6.775417 4.83967,-12.017064 11.42692,-12.017064 5.19042,0 8.2333,3.067538 8.2333,7.071193 0,0.445189 -0.0492,0.890379 -0.14769,1.384356 0,0 -13.6237,-0.146364 -14.12212,-0.146364 -0.10154,0.44519 -0.15076,1.433144 -0.15076,1.927122 0.0492,5.540473 3.19363,9.251401 7.5841,9.251401 2.64598,0 4.79045,-0.939167 6.4888,-3.610303 l 0.54765,0.295777 c -2.09524,4.253693 -5.23965,6.726628 -9.63012,6.726628 -5.88883,0 -10.23008,-4.698882 -10.23008,-10.882746"
             inkscape:connector-curvature="0"
             style="fill:#ffffff;fill-opacity:1" />
          <path
             id="Fill-11-3"
             d="m 125.48572,32.889434 0.94763,-0.04879 c 1.44605,-0.100625 1.99679,-0.246989 1.99679,-0.841591 l 0,-13.40142 c 0,-3.067538 -0.39998,-3.561516 -2.09525,-3.957917 l -1.14761,-0.246989 0.0492,-0.594602 8.18407,-2.177159 -0.10153,7.370019 0.15076,0 c 1.69527,-4.747671 3.69206,-7.418807 6.68878,-7.418807 1.89526,0 3.39362,1.28678 3.39362,3.067538 0,1.481932 -1.09839,2.918125 -2.84597,2.918125 -1.54758,0 -2.84596,-1.039792 -3.1444,-2.771762 -1.64604,0.497027 -2.99365,2.524773 -4.24279,6.382065 l 0,10.928485 c 0,0.448238 0.39997,0.64339 2.39676,0.744015 l 1.49836,0.04879 0.14768,0.792803 -12.02688,0 0.15076,-0.792803 z"
             inkscape:connector-curvature="0"
             style="fill:#ffffff;fill-opacity:1" />
          <path
             id="Fill-13-6"
             d="m 145.5416,33.187345 -0.35074,-6.28144 1.09838,-0.04879 1.14762,2.866288 c 1.29837,2.274735 3.04595,3.710928 5.43963,3.710928 2.59675,0 4.49201,-1.631344 4.49201,-3.957916 0,-2.372311 -2.34446,-3.561516 -5.34118,-4.647046 -3.34131,-1.234943 -6.38726,-2.671136 -6.38726,-6.677841 0,-3.857291 3.19363,-6.577216 7.88562,-6.577216 1.89526,0 3.54438,0.344565 4.79045,0.841591 l 1.7968,-0.545814 0.24921,6.430852 -0.99685,0.04879 -2.59675,-4.601307 c -0.79687,-0.591553 -1.99679,-1.234943 -3.39362,-1.234943 -2.44599,0 -3.84282,1.433144 -3.84282,3.46089 0,2.37536 1.99679,3.216951 5.14119,4.403106 3.49515,1.332519 6.68879,2.768712 6.68879,6.921781 0,3.66214 -3.04595,7.077291 -8.83326,7.077291 -2.7475,0 -5.14119,-0.497026 -6.98722,-1.189204"
             inkscape:connector-curvature="0"
             style="fill:#ffffff;fill-opacity:1" />
          <path
             id="Fill-15-8"
             d="m 182.08068,30.423816 0.20614,-6.470492 c -5.78115,1.402651 -7.11029,3.091932 -7.11029,5.275189 0,1.896629 1.28915,3.049243 2.95365,3.049243 1.49528,0 2.70136,-0.698277 3.9505,-1.85394 m 0,0.783656 -0.0831,-0.03964 c -1.53836,1.567311 -3.28593,2.966913 -5.28272,2.966913 -2.49522,0 -4.44893,-1.814299 -4.44893,-4.122575 0,-2.927273 2.36907,-4.863542 10.06394,-6.720531 l 0.0431,-1.402651 c 0.12307,-4.162216 -1.74757,-5.357519 -4.11972,-5.357519 -1.66451,0 -3.45208,0.948314 -3.45208,1.402651 0,0.289678 0.95686,0.948315 0.95686,1.978959 0,0.865984 -0.70764,1.64964 -1.83064,1.64964 -1.03993,0 -1.83065,-0.618996 -1.83065,-1.61 0,-2.018599 4.61815,-4.573864 7.86409,-4.573864 3.74128,0 5.52886,1.442292 5.27964,6.510133 l -0.41536,8.781818 c -0.04,1.237992 0.41536,1.692329 1.24915,1.692329 0.6215,0 1.28915,-0.536666 1.95372,-1.155662 l 0.33536,0.372007 c -0.87687,1.070284 -2.12294,2.594906 -3.66129,2.594906 -1.45837,0 -2.5383,-1.027595 -2.62137,-2.966913"
             inkscape:connector-curvature="0"
             style="fill:#ffffff;fill-opacity:1" />
          <path
             id="Fill-17-4"
             d="m 191.18315,29.929534 0.20614,-12.282348 -3.24286,-0.08538 0.12614,-0.698277 5.57194,-4.619602 0.49843,0.125019 -0.04,3.628598 6.15651,0 -0.49843,1.564262 -5.65808,0 c 0,0 -0.29229,11.916439 -0.29229,11.956079 -0.04,1.978959 1.03993,2.887633 2.83058,2.887633 1.45529,0 2.53521,-0.701326 3.53515,-1.445341 l 0.24921,0.414697 c -1.53836,1.481932 -3.28593,2.884583 -5.3258,2.884583 -2.32599,0 -4.15972,-1.112973 -4.11664,-4.329924"
             inkscape:connector-curvature="0"
             style="fill:#ffffff;fill-opacity:1" />
          <path
             id="Fill-19-6"
             d="m 209.2647,18.448831 c 0,-9.5959655 7.23644,-16.3713821 18.11571,-16.3713821 3.19363,0 6.48572,0.9391666 8.0333,1.6831818 l 3.44285,-1.0885796 0.15076,10.0381059 -1.09531,0 -3.89513,-7.9615718 c -1.39682,-0.9391666 -3.74128,-1.6313447 -6.63647,-1.6313447 -7.63641,0 -11.92843,6.5772159 -11.92843,14.8864015 0,9.248352 5.03966,15.331591 11.97766,15.331591 4.59046,0 7.23643,-2.076534 9.58397,-5.589261 0,-0.04879 1.69527,-3.957917 1.69527,-3.957917 l 1.14761,0 -1.54759,8.806212 -1.99678,0.04879 c -1.89526,0.792803 -5.93807,1.73197 -9.28246,1.73197 -10.38084,0 -17.76496,-6.232652 -17.76496,-15.926194"
             inkscape:connector-curvature="0"
             style="fill:#ffffff;fill-opacity:1" />
          <path
             id="Fill-21-6"
             d="m 255.26838,29.429153 0.30152,-7.519431 c -5.94114,1.384356 -7.33797,3.363314 -7.33797,5.738674 0,2.125322 1.54759,3.561515 3.24593,3.561515 1.39683,0 2.54445,-0.545814 3.79052,-1.780758 m 0.15076,0.939167 -0.0985,-0.04879 c -1.89833,2.076534 -3.94435,3.90608 -6.53802,3.90608 -2.94442,0 -5.39041,-2.225947 -5.39041,-5.043447 0,-3.512728 2.94442,-5.936875 12.17765,-8.114034 l 0.0462,-1.283731 c 0.10153,-4.601307 -1.84295,-6.580265 -4.93813,-6.580265 -1.74758,0 -3.44285,0.84159 -3.44285,1.28678 0,0.347613 1.34453,1.384356 1.34453,2.768712 0,1.237992 -1.09531,2.37536 -2.69213,2.37536 -1.54759,0 -2.6952,-0.939167 -2.6952,-2.225947 0,-2.869337 6.18727,-5.83625 10.43007,-5.83625 5.23964,0 7.28566,1.978958 6.98414,8.357973 l -0.44612,9.053201 c -0.0985,1.680133 0.55073,2.472936 1.59374,2.472936 0.79994,0 1.50143,-0.643391 2.19677,-1.286781 l 0.45228,0.44519 c -1.14762,1.533769 -3.04595,3.659091 -5.23965,3.659091 -2.15062,0 -3.49515,-1.335569 -3.74436,-3.90608"
             inkscape:connector-curvature="0"
             style="fill:#ffffff;fill-opacity:1" />
          <path
             id="Fill-23-7"
             d="m 265.1954,32.889434 0.95071,-0.04879 c 1.44606,-0.100625 1.99371,-0.246989 1.99371,-0.841591 l 0,-13.40142 c 0,-3.067538 -0.39997,-3.561516 -2.09524,-3.957917 l -1.14762,-0.246989 0.0492,-0.594602 8.18407,-2.177159 -0.0985,4.006704 0.0985,0.04879 c 2.04601,-1.878333 4.54431,-4.10428 7.78409,-4.10428 1.64912,0 2.99672,0.594602 3.99358,1.582557 0.64918,0.594602 1.14761,1.533769 1.35067,2.671136 l 0.14769,0.04879 c 2.14754,-2.17411 4.74122,-4.302481 7.98407,-4.302481 1.64605,0 2.94442,0.493977 3.99358,1.533769 1.19685,1.186155 1.69527,3.213901 1.69527,5.787462 l 0,13.157481 c 0,0.344564 0.0492,0.591553 2.34754,0.789754 l 0.74764,0.04879 0.15076,0.792803 -11.23001,0 0.15075,-0.792803 0.99686,-0.04879 c 1.64604,-0.100625 1.84603,-0.396402 1.84603,-0.841591 l 0,-12.215265 c 0,-3.561515 -1.3476,-4.799508 -4.14126,-4.799508 -1.7968,0 -3.74436,0.890379 -4.34125,1.978959 0.0492,0.100624 -0.0523,1.137367 -0.0523,1.28678 l 0,13.84661 c 0,0.347613 0.10153,0.545814 2.29523,0.744015 l 0.79995,0.04879 0.15076,0.792803 -11.12849,0 0.15076,-0.792803 0.94455,-0.04879 c 1.5999,-0.100625 1.84911,-0.396402 1.84911,-0.841591 l 0,-12.215265 c 0,-3.561515 -1.39683,-4.799508 -4.14434,-4.799508 -1.7968,0 -3.23978,0.841591 -4.4397,1.683182 l 0,15.429167 c 0,0.448238 0.30152,0.597651 2.24293,0.744015 l 0.9507,0.04879 0.0985,0.792803 -11.27617,0 0.14768,-0.792803 z"
             inkscape:connector-curvature="0"
             style="fill:#ffffff;fill-opacity:1" />
          <path
             id="Fill-25-2"
             d="m 322.2288,23.887765 c 0,-5.043447 -2.44599,-8.851951 -6.28573,-8.851951 -2.09832,0 -3.79359,1.036743 -4.99043,2.323523 l 0,11.574924 c 1.29529,2.421099 3.5413,4.403106 5.83653,4.403106 3.34439,0 5.43963,-4.156117 5.43963,-9.449602 l 0,0 z M 306.06066,5.5404735 c 0,-1.4361932 -0.30152,-1.8325947 -1.64604,-2.225947 L 302.76857,2.7199242 302.81472,2.1771591 310.95264,0 l 0,15.974981 0.19691,0.04879 c 2.04601,-2.372311 4.59353,-4.204905 7.58718,-4.204905 5.13811,0 8.93478,4.451894 8.93478,10.486344 0,7.617008 -5.89191,12.068902 -11.78074,12.068902 -2.09525,0 -4.63969,-0.692178 -6.33496,-1.387405 l -0.0523,0 -2.99364,1.735019 -0.4492,0 0,-29.1812505 z"
             inkscape:connector-curvature="0"
             style="fill:#ffffff;fill-opacity:1" />
          <path
             id="Fill-27-7"
             d="m 329.90859,32.889434 0.95071,-0.04879 c 1.44606,-0.100625 1.99371,-0.246989 1.99371,-0.841591 l 0,-13.40142 c 0,-3.067538 -0.39997,-3.561516 -2.09524,-3.957917 l -1.14762,-0.246989 0.0492,-0.594602 8.18406,-2.177159 -0.0985,7.370019 0.15076,0 c 1.69527,-4.747671 3.69206,-7.418807 6.68878,-7.418807 1.89526,0 3.39054,1.28678 3.39054,3.067538 0,1.481932 -1.09531,2.918125 -2.84596,2.918125 -1.54759,0 -2.84289,-1.039792 -3.14133,-2.771762 -1.64604,0.497027 -2.99672,2.524773 -4.24279,6.382065 l 0,10.928485 c 0,0.448238 0.39997,0.64339 2.39368,0.744015 l 1.50144,0.04879 0.14461,0.792803 -12.02381,0 0.14768,-0.792803 z"
             inkscape:connector-curvature="0"
             style="fill:#ffffff;fill-opacity:1" />
          <path
             id="Fill-29-4"
             d="m 351.11517,4.6988826 c 0,-1.4849811 1.04916,-3.1651137 3.14132,-3.1651137 2.15063,0 3.19671,1.6801326 3.19671,3.1651137 0,1.4331439 -1.04608,3.1651136 -3.19671,3.1651136 -2.09216,0 -3.14132,-1.7319697 -3.14132,-3.1651136 l 0,0 z m -1.84911,28.1902464 0.95071,-0.04879 c 1.44913,-0.100625 1.99371,-0.246989 1.99371,-0.841591 l 0,-13.450208 c 0,-3.01875 -0.34767,-3.512728 -2.09217,-3.909129 l -1.10146,-0.246989 0.0523,-0.594602 8.08561,-2.17411 0,20.472614 c 0,0.448238 0.29844,0.597651 2.34446,0.744015 l 0.79687,0.04879 0.15076,0.792803 -11.32539,0 0.1446,-0.792803 z"
             inkscape:connector-curvature="0"
             style="fill:#ffffff;fill-opacity:1" />
          <path
             id="Fill-31-1"
             d="m 378.91084,28.982439 0,-11.818863 c -1.24915,-2.424148 -3.49515,-4.305531 -5.74115,-4.305531 -3.49208,0 -5.48887,4.10733 -5.48887,9.345928 0,5.095285 2.49522,9.004413 6.38727,9.004413 2.09524,0 3.5936,-0.991003 4.84275,-2.225947 l 0,0 z m 0,1.234944 -0.15076,-0.04574 c -1.94756,2.37231 -4.54123,4.153068 -7.53488,4.153068 -5.04274,0 -8.98401,-4.451894 -8.98401,-10.58392 0,-7.617008 5.88883,-11.919489 11.8269,-11.919489 1.84603,0 3.39361,0.246989 4.74122,0.838542 0,0 0.10153,-0.04879 0.10153,0 l 0,-7.5651708 c 0,-1.4361931 -0.35075,-1.9301704 -1.64912,-2.177159 l -2.09525,-0.5427652 0.0985,-0.5458144 8.53481,-1.78075757 0,30.02284097 c 0,1.335568 0.24921,1.634394 0.94763,1.829545 l 2.39676,0.545815 -0.0523,0.591553 -8.18099,1.436193 0,-4.256742 z"
             inkscape:connector-curvature="0"
             style="fill:#ffffff;fill-opacity:1" />
          <path
             id="Fill-33-0"
             d="m 402.06128,19.288288 c 0,-4.055492 -1.19992,-6.824205 -4.09203,-6.824205 -2.39369,0 -3.84282,2.323523 -3.84282,6.28144 0,4.204905 1.49528,6.726628 3.84282,6.726628 2.59675,0 4.09203,-2.177159 4.09203,-6.183863 m 3.94127,19.685909 c 0,-2.472936 -1.69834,-3.909129 -5.88883,-4.10428 -1.44913,-0.05184 -3.63975,0.04574 -5.68577,0.195151 -1.44914,0.594602 -2.89827,2.274735 -2.89827,4.302481 0,3.116326 3.04287,5.244697 7.28567,5.244697 4.24279,0 7.1872,-2.521723 7.1872,-5.638049 m -18.41414,1.680133 c 0,-2.817501 3.04287,-4.698883 5.73807,-5.738675 l 0,-0.09757 c -2.94441,-0.344565 -5.03966,-2.027747 -5.03966,-4.055493 0,-2.469886 2.69521,-4.354318 5.34118,-5.043447 l 0,-0.09758 c -2.44599,-0.942216 -4.492,-3.119375 -4.492,-6.382064 0,-4.253693 3.79051,-7.617008 8.88248,-7.617008 2.34445,0 4.34124,0.692179 5.93806,1.683182 l 6.53802,-0.792803 -0.34767,2.771762 -4.99043,-0.744016 -0.0523,0.198201 c 0.99686,0.939167 1.74758,2.424148 1.74758,4.10428 0,4.204906 -3.84282,7.467595 -9.03324,7.467595 -1.04916,0 -2.34753,-0.149413 -3.09518,-0.292727 -1.39683,0.292727 -2.59367,1.183106 -2.59367,2.37231 0,1.433144 1.39991,2.027747 3.84282,2.027747 1.64912,0 4.23971,-0.149413 6.03652,-0.149413 4.54431,0 7.33797,2.326572 7.33797,6.083239 0,5.39106 -5.29196,9.547177 -13.1745,9.547177 -5.44271,0 -8.58404,-1.93017 -8.58404,-5.244696"
             inkscape:connector-curvature="0"
             style="fill:#ffffff;fill-opacity:1" />
          <path
             id="Fill-35-0"
             d="m 425.56032,18.943114 c 0.0523,-3.363315 -1.04916,-6.430853 -3.79052,-6.430853 -2.54752,0 -4.79352,2.771762 -5.34425,6.47964 0,0 9.18707,-0.04879 9.13477,-0.04879 m -14.57133,4.598257 c 0,-6.775417 4.83967,-12.017064 11.43,-12.017064 5.18734,0 8.23022,3.067538 8.23022,7.071193 0,0.445189 -0.0461,0.890379 -0.15076,1.384356 0,0 -13.62063,-0.146364 -14.11905,-0.146364 -0.10153,0.44519 -0.15076,1.433144 -0.15076,1.927122 0.0492,5.540473 3.19363,9.251401 7.58718,9.251401 2.6429,0 4.78737,-0.939167 6.48572,-3.610303 l 0.55073,0.295777 c -2.09832,4.253693 -5.23965,6.726628 -9.6332,6.726628 -5.88883,0 -10.23008,-4.698882 -10.23008,-10.882746"
             inkscape:connector-curvature="0"
             style="fill:#ffffff;fill-opacity:1" />
        </g>
      </g>
    </g>
    <path
       style="fill:#000000;fill-rule:evenodd;stroke:#ffffff;stroke-width:5.76309395;stroke-linecap:butt;stroke-linejoin:miter;stroke-miterlimit:4;stroke-dasharray:none;stroke-opacity:1;filter:url(#filter5823)"
       d="m 260,373.86836 0,-71.78571"
       id="path6779"
       inkscape:connector-curvature="0" />
    <g
       transform="translate(-132,-469.49379)"
       style="font-style:normal;font-weight:normal;font-size:6.1658597px;line-height:125%;font-family:sans-serif;letter-spacing:0px;word-spacing:0px;fill:#000000;fill-opacity:1;stroke:none;stroke-width:1px;stroke-linecap:butt;stroke-linejoin:miter;stroke-opacity:1;filter:url(#filter5823)"
       id="text6781" />
  </g>
</svg>
